HIERARCHY
ROOT mixamorig:Hips
{
	OFFSET 0.000000 201.639420 0.000000
	CHANNELS 6 Xposition Yposition Zposition Xrotation Yrotation Zrotation
	JOINT mixamorig:Spine
	{
		OFFSET 0.006200 19.524994 -2.481800
		CHANNELS 3 Xrotation Yrotation Zrotation
		JOINT mixamorig:Spine1
		{
			OFFSET -0.000900 22.835007 -2.825400
			CHANNELS 3 Xrotation Yrotation Zrotation
			JOINT mixamorig:Spine2
			{
				OFFSET -0.020600 26.552490 -3.193300
				CHANNELS 3 Xrotation Yrotation Zrotation
				JOINT mixamorig:Neck
				{
					OFFSET -0.060000 30.701813 1.352200
					CHANNELS 3 Xrotation Yrotation Zrotation
					JOINT mixamorig:Head
					{
						OFFSET -0.087200 22.547607 3.670900
						CHANNELS 3 Xrotation Yrotation Zrotation
						JOINT mixamorig:HeadTop_End
						{
							OFFSET -0.830600 40.355194 7.893500
							CHANNELS 3 Xrotation Yrotation Zrotation
							End Site
							{
								OFFSET 0.000000 30.592346 0.000000
							}
						}
						JOINT mixamorig:RightEye
						{
							OFFSET -6.302100 18.118591 16.197100
							CHANNELS 3 Xrotation Yrotation Zrotation
							End Site
							{
								OFFSET 0.000000 30.592346 0.000000
							}
						}
						JOINT mixamorig:LeftEye
						{
							OFFSET 6.741500 18.382690 16.401899
							CHANNELS 3 Xrotation Yrotation Zrotation
							End Site
							{
								OFFSET 0.000000 30.592346 0.000000
							}
						}
					}
				}
				JOINT mixamorig:LeftShoulder
				{
					OFFSET 11.924900 18.230499 1.425400
					CHANNELS 3 Xrotation Yrotation Zrotation
					JOINT mixamorig:LeftArm
					{
						OFFSET 25.435989 -0.697632 -5.229300
						CHANNELS 3 Xrotation Yrotation Zrotation
						JOINT mixamorig:LeftForeArm
						{
							OFFSET 54.684776 0.000000 0.000000
							CHANNELS 3 Xrotation Yrotation Zrotation
							JOINT mixamorig:LeftHand
							{
								OFFSET 55.098175 0.000000 0.000000
								CHANNELS 3 Xrotation Yrotation Zrotation
								JOINT mixamorig:LeftHandMiddle1
								{
									OFFSET 23.369751 0.000000 0.000000
									CHANNELS 3 Xrotation Yrotation Zrotation
									JOINT mixamorig:LeftHandMiddle2
									{
										OFFSET 6.378677 0.000000 0.000000
										CHANNELS 3 Xrotation Yrotation Zrotation
										JOINT mixamorig:LeftHandMiddle3
										{
											OFFSET 6.148331 0.000000 0.000000
											CHANNELS 3 Xrotation Yrotation Zrotation
											JOINT mixamorig:LeftHandMiddle4
											{
												OFFSET 6.582504 0.000000 0.000000
												CHANNELS 3 Xrotation Yrotation Zrotation
												End Site
												{
													OFFSET -1.168900 6.395691 1.028606
												}
											}
										}
									}
								}
								JOINT mixamorig:LeftHandThumb1
								{
									OFFSET 7.235672 -3.848206 5.434273
									CHANNELS 3 Xrotation Yrotation Zrotation
									JOINT mixamorig:LeftHandThumb2
									{
										OFFSET 6.568451 -3.792297 3.792300
										CHANNELS 3 Xrotation Yrotation Zrotation
										JOINT mixamorig:LeftHandThumb3
										{
											OFFSET 6.063080 -3.500519 3.500518
											CHANNELS 3 Xrotation Yrotation Zrotation
											JOINT mixamorig:LeftHandThumb4
											{
												OFFSET 4.793182 -2.767334 2.767349
												CHANNELS 3 Xrotation Yrotation Zrotation
												End Site
												{
													OFFSET 0.101639 6.054260 1.275483
												}
											}
										}
									}
								}
								JOINT mixamorig:LeftHandIndex1
								{
									OFFSET 23.101074 -0.309540 4.992809
									CHANNELS 3 Xrotation Yrotation Zrotation
									JOINT mixamorig:LeftHandIndex2
									{
										OFFSET 6.226883 0.000000 0.000000
										CHANNELS 3 Xrotation Yrotation Zrotation
										JOINT mixamorig:LeftHandIndex3
										{
											OFFSET 6.094330 0.000000 0.000000
											CHANNELS 3 Xrotation Yrotation Zrotation
											JOINT mixamorig:LeftHandIndex4
											{
												OFFSET 5.482605 0.000000 0.000000
												CHANNELS 3 Xrotation Yrotation Zrotation
												End Site
												{
													OFFSET -1.427902 5.233032 0.797164
												}
											}
										}
									}
								}
								JOINT mixamorig:LeftHandRing1
								{
									OFFSET 22.299240 0.021149 -3.964172
									CHANNELS 3 Xrotation Yrotation Zrotation
									JOINT mixamorig:LeftHandRing2
									{
										OFFSET 6.321869 0.000000 0.000000
										CHANNELS 3 Xrotation Yrotation Zrotation
										JOINT mixamorig:LeftHandRing3
										{
											OFFSET 5.899796 0.000000 0.000000
											CHANNELS 3 Xrotation Yrotation Zrotation
											JOINT mixamorig:LeftHandRing4
											{
												OFFSET 6.517899 0.000000 0.000000
												CHANNELS 3 Xrotation Yrotation Zrotation
												End Site
												{
													OFFSET -1.637299 6.232208 0.980890
												}
											}
										}
									}
								}
								JOINT mixamorig:LeftHandPinky1
								{
									OFFSET 20.463791 -0.302338 -8.562233
									CHANNELS 3 Xrotation Yrotation Zrotation
									JOINT mixamorig:LeftHandPinky2
									{
										OFFSET 6.908646 0.000000 0.000000
										CHANNELS 3 Xrotation Yrotation Zrotation
										JOINT mixamorig:LeftHandPinky3
										{
											OFFSET 4.622849 0.000000 0.000000
											CHANNELS 3 Xrotation Yrotation Zrotation
											JOINT mixamorig:LeftHandPinky4
											{
												OFFSET 5.216080 0.000000 0.000000
												CHANNELS 3 Xrotation Yrotation Zrotation
												End Site
												{
													OFFSET -0.606308 5.116241 0.814926
												}
											}
										}
									}
								}
							}
						}
					}
				}
				JOINT mixamorig:RightShoulder
				{
					OFFSET -12.001300 18.284088 1.348900
					CHANNELS 3 Xrotation Yrotation Zrotation
					JOINT mixamorig:RightArm
					{
						OFFSET -25.308500 -0.751312 -5.164599
						CHANNELS 3 Xrotation Yrotation Zrotation
						JOINT mixamorig:RightForeArm
						{
							OFFSET -54.684429 0.000000 0.000000
							CHANNELS 3 Xrotation Yrotation Zrotation
							JOINT mixamorig:RightHand
							{
								OFFSET -55.150291 0.000000 0.000000
								CHANNELS 3 Xrotation Yrotation Zrotation
								JOINT mixamorig:RightHandMiddle1
								{
									OFFSET -23.317566 0.000000 0.000000
									CHANNELS 3 Xrotation Yrotation Zrotation
									JOINT mixamorig:RightHandMiddle2
									{
										OFFSET -6.378403 0.000000 0.000000
										CHANNELS 3 Xrotation Yrotation Zrotation
										JOINT mixamorig:RightHandMiddle3
										{
											OFFSET -6.148193 0.000000 0.000000
											CHANNELS 3 Xrotation Yrotation Zrotation
											JOINT mixamorig:RightHandMiddle4
											{
												OFFSET -6.583389 0.000000 0.000000
												CHANNELS 3 Xrotation Yrotation Zrotation
												End Site
												{
													OFFSET 1.171692 6.395905 1.029786
												}
											}
										}
									}
								}
								JOINT mixamorig:RightHandThumb1
								{
									OFFSET -7.190521 -3.860474 5.435846
									CHANNELS 3 Xrotation Yrotation Zrotation
									JOINT mixamorig:RightHandThumb2
									{
										OFFSET -6.567429 -3.791718 3.791708
										CHANNELS 3 Xrotation Yrotation Zrotation
										JOINT mixamorig:RightHandThumb3
										{
											OFFSET -6.062469 -3.500153 3.500166
											CHANNELS 3 Xrotation Yrotation Zrotation
											JOINT mixamorig:RightHandThumb4
											{
												OFFSET -4.792618 -2.767029 2.767022
												CHANNELS 3 Xrotation Yrotation Zrotation
												End Site
												{
													OFFSET -0.100327 6.053253 1.276754
												}
											}
										}
									}
								}
								JOINT mixamorig:RightHandIndex1
								{
									OFFSET -23.048981 -0.310791 4.992554
									CHANNELS 3 Xrotation Yrotation Zrotation
									JOINT mixamorig:RightHandIndex2
									{
										OFFSET -6.227539 0.000000 0.000000
										CHANNELS 3 Xrotation Yrotation Zrotation
										JOINT mixamorig:RightHandIndex3
										{
											OFFSET -6.095047 0.000000 0.000000
											CHANNELS 3 Xrotation Yrotation Zrotation
											JOINT mixamorig:RightHandIndex4
											{
												OFFSET -5.484772 0.000000 0.000000
												CHANNELS 3 Xrotation Yrotation Zrotation
												End Site
												{
													OFFSET 1.420593 5.237305 0.797056
												}
											}
										}
									}
								}
								JOINT mixamorig:RightHandRing1
								{
									OFFSET -22.246323 0.020569 -3.963762
									CHANNELS 3 Xrotation Yrotation Zrotation
									JOINT mixamorig:RightHandRing2
									{
										OFFSET -6.322128 0.000000 0.000000
										CHANNELS 3 Xrotation Yrotation Zrotation
										JOINT mixamorig:RightHandRing3
										{
											OFFSET -5.900024 0.000000 0.000000
											CHANNELS 3 Xrotation Yrotation Zrotation
											JOINT mixamorig:RightHandRing4
											{
												OFFSET -6.518356 0.000000 0.000000
												CHANNELS 3 Xrotation Yrotation Zrotation
												End Site
												{
													OFFSET 1.636398 6.232697 0.982186
												}
											}
										}
									}
								}
								JOINT mixamorig:RightHandPinky1
								{
									OFFSET -20.411011 -0.303314 -8.561701
									CHANNELS 3 Xrotation Yrotation Zrotation
									JOINT mixamorig:RightHandPinky2
									{
										OFFSET -6.907349 0.000000 0.000000
										CHANNELS 3 Xrotation Yrotation Zrotation
										JOINT mixamorig:RightHandPinky3
										{
											OFFSET -4.623840 0.000000 0.000000
											CHANNELS 3 Xrotation Yrotation Zrotation
											JOINT mixamorig:RightHandPinky4
											{
												OFFSET -5.218353 0.000000 0.000000
												CHANNELS 3 Xrotation Yrotation Zrotation
												End Site
												{
													OFFSET 0.602097 5.118835 0.816273
												}
											}
										}
									}
								}
							}
						}
					}
				}
			}
		}
	}
	JOINT mixamorig:LeftUpLeg
	{
		OFFSET 18.168400 -13.561905 -0.039000
		CHANNELS 3 Xrotation Yrotation Zrotation
		JOINT mixamorig:LeftLeg
		{
			OFFSET 0.577358 -80.825211 -3.695000
			CHANNELS 3 Xrotation Yrotation Zrotation
			JOINT mixamorig:LeftFoot
			{
				OFFSET -0.577356 -83.370262 -6.520700
				CHANNELS 3 Xrotation Yrotation Zrotation
				JOINT mixamorig:LeftToeBase
				{
					OFFSET 0.750401 -20.798306 25.135401
					CHANNELS 3 Xrotation Yrotation Zrotation
					JOINT mixamorig:LeftToe_End
					{
						OFFSET -0.000500 0.001200 19.917799
						CHANNELS 3 Xrotation Yrotation Zrotation
						End Site
						{
							OFFSET 0.000000 19.917805 0.000000
						}
					}
				}
			}
		}
	}
	JOINT mixamorig:RightUpLeg
	{
		OFFSET -18.162500 -13.585098 -0.041000
		CHANNELS 3 Xrotation Yrotation Zrotation
		JOINT mixamorig:RightLeg
		{
			OFFSET -0.595024 -80.945297 -3.631900
			CHANNELS 3 Xrotation Yrotation Zrotation
			JOINT mixamorig:RightFoot
			{
				OFFSET 0.595024 -83.218193 -6.561200
				CHANNELS 3 Xrotation Yrotation Zrotation
				JOINT mixamorig:RightToeBase
				{
					OFFSET -0.753601 -20.807106 25.115000
					CHANNELS 3 Xrotation Yrotation Zrotation
					JOINT mixamorig:RightToe_End
					{
						OFFSET 0.000299 0.001700 19.918200
						CHANNELS 3 Xrotation Yrotation Zrotation
						End Site
						{
							OFFSET 0.000000 19.918203 0.000000
						}
					}
				}
			}
		}
	}
}
MOTION
Frames: 4
Frame Time: 0.033333
-0.012689 173.029327 -0.641714 -5.398707 -46.252009 -0.056141 9.475557 7.180790 -1.803775 2.187715 0.989903 -0.915632 2.202831 0.982769 -0.894152 0.084652 13.220553 4.538682 8.920928 20.138142 -4.130237 -0.000000 0.000000 -0.000000 -0.000000 0.000000 -0.000000 -0.000000 0.000000 -0.000000 1.117175 3.546355 -8.633312 -53.487013 4.935499 -51.503000 0.000079 -106.358087 0.000064 1.988601 -7.706143 -15.869244 -0.461472 3.841582 -39.722693 6.450736 5.820349 -95.892844 2.182882 4.561558 -51.127726 0.000002 -0.000002 0.000005 -6.141204 -11.690808 -6.761693 9.914071 42.595525 3.409871 -0.422811 8.108093 27.509104 -0.000004 -0.000000 -0.000001 0.255313 3.378218 -45.814354 5.654085 5.847751 -88.067462 2.162143 4.544812 -50.866389 -0.000001 -0.000000 0.000000 0.469731 4.966834 -39.799444 8.181049 5.368619 -113.503011 3.200484 5.218114 -63.022996 0.000000 0.000001 0.000004 -3.762422 9.063697 -45.253838 5.342532 5.828991 -85.005311 8.716844 5.103339 -119.369194 -0.000001 0.000000 0.000002 3.036127 13.027196 -5.371408 -48.713715 27.172830 83.457084 0.000289 105.988266 -0.000283 -8.345374 17.548112 8.775670 -0.761627 -2.932912 39.031072 5.133898 -4.632773 95.881676 1.739732 -3.631692 51.181363 -0.000001 -0.000001 -0.000000 -7.341108 13.749655 7.412325 9.855776 -44.489093 -3.903259 -0.115796 -14.513068 -28.973861 -0.000002 -0.000002 0.000002 -0.124377 -2.384785 45.108864 4.500569 -4.654513 88.071171 1.723228 -3.618374 50.920126 0.000001 0.000001 -0.000003 0.154758 -4.068818 39.122668 6.509733 -4.273603 113.462857 2.549571 -4.153899 63.067324 0.000001 -0.000001 0.000003 -4.198877 -8.025519 44.637789 4.252916 -4.639631 85.014818 6.935964 -4.062624 119.322285 -0.000001 0.000001 -0.000001 -34.130817 7.615474 16.986778 59.306854 -6.173451 4.298895 -22.400415 -8.372817 -14.231642 -1.594042 -0.000017 0.000002 0.000000 -0.000002 -0.000000 -27.091580 -9.870254 -27.856940 58.168958 -9.793203 -7.732373 -23.346295 -5.496097 20.853100 -0.012996 0.000050 0.000001 0.000000 0.000000 -0.000000 
-1.224562 173.651733 -0.887787 -7.407662 -46.269406 -0.260398 8.671211 7.405821 -2.263235 3.453419 1.764424 -1.707890 3.464332 1.751606 -1.685989 2.065256 11.136971 3.216476 10.651357 18.338037 -2.808504 -0.000002 -0.000000 -0.000000 -0.000002 -0.000000 -0.000000 -0.000002 -0.000000 -0.000000 0.760856 2.198601 -7.398091 -52.069954 -1.128491 -55.055098 0.000011 -104.289305 -0.000009 -4.684166 -7.991590 -10.890343 -0.461472 3.841580 -39.722693 6.450738 5.820350 -95.892844 2.182885 4.561562 -51.127716 -0.000000 0.000001 0.000001 -6.141210 -11.690810 -6.761694 9.914078 42.595529 3.409879 -0.422809 8.108087 27.509111 0.000003 -0.000003 0.000003 0.255312 3.378215 -45.814354 5.654089 5.847749 -88.067462 2.162142 4.544812 -50.866386 -0.000002 -0.000000 0.000001 0.469729 4.966836 -39.799444 8.181055 5.368618 -113.503018 3.200485 5.218113 -63.022989 -0.000003 0.000000 -0.000004 -3.762422 9.063697 -45.253842 5.342537 5.828988 -85.005317 8.716845 5.103338 -119.369208 -0.000001 0.000000 0.000001 4.437086 15.160430 -4.536017 -45.716614 26.138603 77.138961 0.000091 107.337447 -0.000090 -11.039589 17.862201 7.678204 -0.761626 -2.932911 39.031075 5.133898 -4.632771 95.881676 1.739734 -3.631694 51.181360 0.000000 -0.000003 0.000001 -7.341108 13.749654 7.412320 9.855781 -44.489093 -3.903259 -0.115795 -14.513064 -28.973861 0.000004 -0.000002 0.000001 -0.124376 -2.384788 45.108864 4.500570 -4.654513 88.071171 1.723227 -3.618373 50.920122 0.000001 -0.000000 0.000000 0.154761 -4.068818 39.122664 6.509735 -4.273598 113.462857 2.549568 -4.153895 63.067330 -0.000002 -0.000001 0.000004 -4.198877 -8.025519 44.637786 4.252915 -4.639631 85.014811 6.935964 -4.062621 119.322298 0.000002 -0.000000 -0.000000 -31.098302 7.843332 15.091643 57.563721 -5.194256 5.016725 -22.153872 -7.950321 -15.313364 -1.594043 -0.000015 0.000002 0.000000 0.000002 0.000000 -26.061951 -10.801652 -29.575324 57.914479 -8.552134 -7.927388 -23.867792 -5.323391 20.243573 -0.012996 0.000050 0.000001 0.000000 -0.000001 -0.000000 
-3.487525 174.759430 -0.193527 -10.903778 -45.385941 -0.881503 6.902956 7.865799 -2.107742 4.350227 2.743157 -2.316753 4.356075 2.723514 -2.285729 3.786227 8.098877 1.317428 15.381132 12.872629 -4.658203 0.000003 -0.000001 0.000001 0.000003 -0.000001 0.000001 0.000003 -0.000001 0.000001 0.419995 1.651789 -5.325478 -48.337375 -8.352713 -61.301713 0.000176 -100.013019 0.000191 -7.356551 -7.341648 -7.148363 -0.461470 3.841579 -39.722690 6.450741 5.820350 -95.892844 2.182886 4.561557 -51.127723 0.000002 0.000000 0.000002 -6.141206 -11.690812 -6.761689 9.914073 42.595525 3.409875 -0.422817 8.108092 27.509111 0.000003 -0.000002 0.000001 0.255312 3.378218 -45.814351 5.654086 5.847749 -88.067462 2.162142 4.544814 -50.866389 0.000000 0.000001 -0.000000 0.469730 4.966839 -39.799444 8.181047 5.368615 -113.503011 3.200484 5.218113 -63.022989 0.000002 0.000001 0.000001 -3.762418 9.063694 -45.253838 5.342540 5.828990 -85.005311 8.716846 5.103340 -119.369194 0.000003 -0.000001 -0.000000 5.556514 16.387570 -2.226630 -40.647764 25.250458 69.164770 0.000137 109.245761 -0.000151 -13.017882 13.247975 10.961135 -0.761625 -2.932909 39.031078 5.133903 -4.632776 95.881676 1.739736 -3.631695 51.181363 0.000001 0.000002 -0.000003 -7.341109 13.749657 7.412319 9.855778 -44.489096 -3.903268 -0.115792 -14.513064 -28.973857 -0.000001 -0.000002 0.000002 -0.124377 -2.384787 45.108861 4.500567 -4.654512 88.071171 1.723226 -3.618371 50.920122 0.000001 -0.000002 0.000000 0.154761 -4.068817 39.122671 6.509736 -4.273597 113.462850 2.549570 -4.153899 63.067324 -0.000001 -0.000002 0.000002 -4.198876 -8.025517 44.637786 4.252917 -4.639634 85.014818 6.935961 -4.062626 119.322285 0.000004 0.000000 0.000000 -26.092064 8.653604 12.560250 54.827824 -5.007643 5.910730 -21.861789 -7.833703 -16.110845 -1.594043 -0.000015 0.000002 0.000000 -0.000000 -0.000000 -22.868126 -12.549735 -31.894002 56.511363 -7.259043 -8.410090 -24.367982 -5.792128 20.059180 -0.012996 0.000049 0.000001 0.000000 -0.000001 -0.000001 
-6.561861 176.883041 1.849194 -14.982438 -46.225720 -1.505586 4.365087 7.875262 -0.728210 4.801495 3.486793 -2.125358 4.808795 3.454439 -2.080964 3.709218 4.024244 0.153952 13.105782 4.729977 -7.386043 0.000000 0.000000 -0.000000 0.000000 0.000000 -0.000000 0.000000 0.000000 -0.000000 0.008823 1.947301 -2.106797 -38.936784 -11.674139 -68.242763 -0.002339 -92.194713 -0.002415 -6.682755 -5.198143 -7.323508 -0.461474 3.841576 -39.722693 6.450744 5.820350 -95.892844 2.182885 4.561558 -51.127729 0.000002 -0.000002 -0.000002 -6.141210 -11.690814 -6.761703 9.914075 42.595522 3.409859 -0.422815 8.108087 27.509109 0.000001 -0.000000 0.000001 0.255308 3.378214 -45.814354 5.654089 5.847748 -88.067462 2.162141 4.544812 -50.866389 0.000000 -0.000001 -0.000002 0.469729 4.966835 -39.799451 8.181054 5.368617 -113.503018 3.200485 5.218113 -63.022989 -0.000002 -0.000000 0.000001 -3.762425 9.063694 -45.253842 5.342529 5.828988 -85.005311 8.716843 5.103330 -119.369194 0.000004 0.000001 0.000000 6.140072 16.304725 1.811422 -37.180118 26.135408 61.247385 0.000029 111.616008 -0.000044 -12.728481 5.459564 17.254911 -0.761626 -2.932910 39.031075 5.133901 -4.632774 95.881676 1.739734 -3.631693 51.181360 0.000001 0.000002 -0.000002 -7.341104 13.749657 7.412327 9.855782 -44.489089 -3.903263 -0.115794 -14.513063 -28.973861 -0.000002 -0.000002 0.000001 -0.124377 -2.384784 45.108861 4.500568 -4.654510 88.071171 1.723230 -3.618373 50.920122 0.000001 0.000000 0.000001 0.154761 -4.068816 39.122668 6.509735 -4.273596 113.462857 2.549571 -4.153891 63.067324 0.000000 0.000001 -0.000003 -4.198878 -8.025518 44.637786 4.252919 -4.639629 85.014818 6.935959 -4.062622 119.322298 0.000003 0.000000 0.000001 -18.511843 9.879226 9.681780 49.891895 -3.329864 5.857773 -21.424432 -8.140951 -17.135058 -1.594043 -0.000014 0.000002 0.000000 0.000002 -0.000000 -18.798827 -13.946338 -34.463144 53.281428 -5.064885 -9.073323 -24.225407 -6.061167 19.824667 -0.012996 0.000049 0.000001 -0.000000 -0.000000 0.000000 
